<svg width="24" height="24" viewBox="0 0 24 24" fill="none" xmlns="http://www.w3.org/2000/svg">
<path opacity="0.987" fill-rule="evenodd" clip-rule="evenodd" d="M11.011 5.06099C11.736 4.97999 12.165 4.97999 12.944 5.06099C14.3229 5.26509 15.6012 5.90248 16.594 6.88099C15.9231 7.51513 15.2611 8.15852 14.608 8.81099C13.3573 7.75099 11.9613 7.50633 10.42 8.07699C9.28933 8.59699 8.502 9.43966 8.058 10.605C7.33244 10.0648 6.61633 9.51207 5.91 8.94699C5.86091 8.92116 5.80485 8.9117 5.75 8.91999C6.872 6.75666 8.62533 5.46999 11.01 5.05999" fill="#F44336"/>
<path opacity="0.997" fill-rule="evenodd" clip-rule="evenodd" d="M5.74703 8.91994C5.8037 8.91127 5.85737 8.92027 5.90803 8.94694C6.61437 9.51202 7.33047 10.0648 8.05603 10.6049C7.94186 11.059 7.86989 11.5226 7.84103 11.9899C7.8657 12.4419 7.93737 12.8856 8.05603 13.3209L5.80103 15.1159C4.81903 13.0639 4.80103 10.9986 5.74703 8.91994Z" fill="#FFC107"/>
<path opacity="0.999" fill-rule="evenodd" clip-rule="evenodd" d="M16.4868 17.29C15.7847 16.6708 15.0496 16.0899 14.2848 15.55C15.0515 15.0087 15.5168 14.266 15.6808 13.322H11.9238V10.713C14.0905 10.695 16.2562 10.7133 18.4208 10.768C18.8315 12.998 18.3572 15.0087 16.9978 16.8C16.8362 16.9718 16.665 17.1354 16.4868 17.29Z" fill="#448AFF"/>
<path opacity="0.993" fill-rule="evenodd" clip-rule="evenodd" d="M8.05578 13.322C8.87578 15.36 10.3791 16.3114 12.5658 16.176C13.1796 16.105 13.7681 15.8905 14.2838 15.55C15.0491 16.0914 15.7831 16.6714 16.4858 17.29C15.3724 18.2905 13.9529 18.8841 12.4588 18.974C12.1193 19.0012 11.7782 19.0012 11.4388 18.974C8.89345 18.674 7.01411 17.388 5.80078 15.116L8.05578 13.322Z" fill="#43A047"/>
</svg>
