<svg width="14" height="16" viewBox="0 0 14 16" fill="none" xmlns="http://www.w3.org/2000/svg">
<g clip-path="url(#clip0_56_2288)">
<path d="M13.7235 14.1581L9.28664 12L13.7238 9.84188C13.9707 9.71844 14.071 9.41813 13.9473 9.17125L13.5001 8.27656C13.3766 8.02969 13.0763 7.92938 12.8291 8.05281L7.00007 10.8878L1.17101 8.05281C0.924135 7.92938 0.623822 8.02938 0.500072 8.27656L0.0528849 9.17125C-0.0705526 9.41813 0.0294474 9.71844 0.276322 9.84188L4.71351 12L0.276635 14.1581C0.0297599 14.2816 -0.0705526 14.5819 0.0531974 14.8291L0.500385 15.7238C0.623822 15.9706 0.924135 16.0709 1.17132 15.9472L7.00007 13.1122L12.8291 15.9472C13.076 16.0706 13.3763 15.9706 13.5001 15.7238L13.9473 14.8291C14.0707 14.5819 13.9704 14.2816 13.7235 14.1581ZM4.68757 7.415L4.51632 8.22344C4.43289 8.61781 4.6857 9 5.03039 9H8.97038C9.31507 9 9.56788 8.61781 9.48445 8.22344L9.31257 7.415C10.6182 6.71469 11.5001 5.45406 11.5001 4C11.5001 1.79094 9.48538 0 7.00007 0C4.51476 0 2.50007 1.79094 2.50007 4C2.50007 5.45406 3.38195 6.71469 4.68757 7.415ZM8.75007 3.5C9.30163 3.5 9.75007 3.94844 9.75007 4.5C9.75007 5.05156 9.30163 5.5 8.75007 5.5C8.19851 5.5 7.75007 5.05156 7.75007 4.5C7.75007 3.94844 8.19851 3.5 8.75007 3.5ZM5.25007 3.5C5.80163 3.5 6.25007 3.94844 6.25007 4.5C6.25007 5.05156 5.80163 5.5 5.25007 5.5C4.69851 5.5 4.25007 5.05156 4.25007 4.5C4.25007 3.94844 4.69851 3.5 5.25007 3.5Z" fill="#FA6E70"/>
</g>
<defs>
<clipPath id="clip0_56_2288">
<rect width="14" height="16" fill="white"/>
</clipPath>
</defs>
</svg>
